<svg id="Layer_1" data-name="Layer 1" xmlns="http://www.w3.org/2000/svg" viewBox="0 0 400 400"><defs><style>.cls-1{fill:#152742;}.cls-2{fill:none;stroke:#34aec5;stroke-linecap:round;stroke-linejoin:round;stroke-width:6px;}</style></defs><rect class="cls-1" x="-9.82" y="-12.35" width="421.86" height="421.86"/><circle class="cls-2" cx="135.67" cy="259.22" r="17.44"/><circle class="cls-2" cx="263.25" cy="259.22" r="17.44"/><polyline class="cls-2" points="110.47 266.06 96.11 259.22 96.11 222.11 124.78 212.56 152.11 196.56 152.11 182.56 217.44 182.56 217.44 196.11 241.44 214.11"/><line class="cls-2" x1="96.11" y1="232.56" x2="111.44" y2="232.56"/><path class="cls-2" d="M124.78,212.56,141,224.31H256.65a10.37,10.37,0,0,1,2,.19l25.18,4.79A21.84,21.84,0,0,1,301.58,250l.34,10.42a5.44,5.44,0,0,1-5.44,5.63H287"/><line class="cls-2" x1="159.89" y1="266.06" x2="235.89" y2="266.06"/><path class="cls-2" d="M186.78,232.56v33.5"/><line class="cls-2" x1="152.11" y1="196.56" x2="217.44" y2="196.56"/><line class="cls-2" x1="186.78" y1="196.56" x2="186.78" y2="217.89"/><line class="cls-2" x1="178.11" y1="182.56" x2="178.11" y2="164.56"/><line class="cls-2" x1="193" y1="182.56" x2="193" y2="164.56"/><line class="cls-2" x1="170.33" y1="164.56" x2="200" y2="164.56"/><path class="cls-2" d="M138,181.31a17.22,17.22,0,0,1,1-30.08"/><path class="cls-2" d="M112.62,200.41a48.15,48.15,0,0,1,4.53-71.74"/><path class="cls-2" d="M124.34,191.58a33.66,33.66,0,0,1,3-52.43"/><path class="cls-2" d="M238.09,149.23a17.22,17.22,0,0,1,1,30.08"/><path class="cls-2" d="M259.94,126.67a48.15,48.15,0,0,1,4.53,71.74"/><path class="cls-2" d="M249.79,137.15a33.66,33.66,0,0,1,3,52.43"/></svg>